<svg width="556" class="overflow-visible" height="324" viewBox="0 0 556 324" fill="none" xmlns="http://www.w3.org/2000/svg">
<g clip-path="url(#clip0_40_505)">
<path d="M3.20001 0H31.6C45.5 0 57 8.99998 57 25.2C57 38.6 48.8 47 38.5 49.4L57.4 87.4H39.4L21.8 50.4H19.7V87.4H3.30002L3.20001 0ZM30.9 35.6C37.5 35.6 40.9 31.2 40.9 25.2C40.9 19.2 37.5 14.7 30.9 14.7H19.7V35.6H30.9Z" fill="#79328A"/>
<path d="M64.6 56.2C64.6 37.4 78.2 24.2 96.1 24.2C104.1 24.2 110.6 27.6 113.6 30.8V24.9H129.7V87.4H113.6V81.4C110.7 84.8 104.2 88.2 96.1 88.2C78.2 88.2 64.6 75 64.6 56.2ZM113.5 56.2C113.5 45.7 106.5 39.2 97.3 39.2C87.9 39.2 80.5 45.7 80.5 56.2C80.5 66.6 87.9 73.2 97.3 73.2C106.5 73.2 113.5 66.6 113.5 56.2Z" fill="#79328A"/>
<path d="M145.5 25H161.5V33.2C163.6 28.2 168.6 24.2 176.1 24.2C179.1 24.2 180.6 24.6 181.6 25V40.9C180.2 40.3 178.1 39.9 175.8 39.9C167.6 39.9 161.4 45.4 161.4 55.4V87.5H145.4L145.5 25Z" fill="#79328A"/>
<path d="M188.7 56.2C188.7 38.3 202.5 24.2 220.6 24.2C239.2 24.2 252.4 39.1 252.4 55.8C252.4 57.4 252.3 59.2 252 60.7H205.4C206.5 67.8 212.6 73.8 221 73.8C226.5 73.8 231.2 72 233.5 68H251.5C247.6 80.1 235.6 88.1 221.1 88.1C202.6 88.2 188.7 74.1 188.7 56.2ZM235.1 48.9C233.5 42.5 227.7 38.1 220.6 38.1C213.6 38.1 207.6 42.3 206 48.9H235.1Z" fill="#79328A"/>
<path d="M3.20001 118H30.2C55.2 118 73.3 134.8 73.3 161.8C73.3 188.8 55.2 205.5 30.2 205.5H3.20001V118ZM30.4 190C45.2 190 56.8 180 56.8 161.8C56.8 143.6 45.1 133.3 30.4 133.3H19.6V189.9L30.4 190Z" fill="#79328A"/>
<path d="M83.7 174.2C83.7 156.3 97.5 142.2 115.6 142.2C134.2 142.2 147.4 157.1 147.4 173.8C147.4 175.4 147.3 177.2 147 178.7H100.4C101.5 185.8 107.6 191.8 116 191.8C121.5 191.8 126.2 190 128.5 186H146.5C142.6 198.1 130.6 206.1 116.1 206.1C97.6 206.2 83.7 192.1 83.7 174.2ZM130.1 166.9C128.5 160.5 122.7 156.1 115.6 156.1C108.6 156.1 102.6 160.3 101 166.9H130.1Z" fill="#79328A"/>
<path d="M160.5 143H176.6V149.2C180.2 145 185.8 142.2 192.5 142.2C199.6 142.2 204.9 145.2 208.3 150.2C212.5 145.7 218.3 142.2 227.2 142.2C240.3 142.2 248.8 149.7 248.8 165.4V205.4H232.8V168.9C232.8 161.5 229.4 157.3 222.8 157.3C216.9 157.3 212.7 161.5 212.7 168.9V205.4H196.7V168.9C196.7 161.5 193.3 157.3 186.7 157.3C180.9 157.3 176.6 161.5 176.6 168.9V205.4H160.6L160.5 143Z" fill="#79328A"/>
<path d="M261.2 174.2C261.2 156.3 275 142.2 293.1 142.2C311.7 142.2 324.9 157.1 324.9 173.8C324.9 175.4 324.8 177.2 324.5 178.7H277.9C279 185.8 285.1 191.8 293.5 191.8C299 191.8 303.7 190 306 186H324C320.1 198.1 308.1 206.1 293.6 206.1C275.1 206.2 261.2 192.1 261.2 174.2ZM307.6 166.9C306 160.5 300.2 156.1 293.1 156.1C286.1 156.1 280.1 160.3 278.5 166.9H307.6Z" fill="#79328A"/>
<path d="M338 143H354V148.9C357.1 145.4 362.5 142.3 370.4 142.3C385.4 142.3 394.9 151.4 394.9 168.1V205.6H378.9V171.8C378.9 162 374.9 157.4 367 157.4C358.4 157.4 354 163.4 354 171.8V205.6H338V143Z" fill="#79328A"/>
<path d="M416.1 157.9H403.5V143H416.1V118.1L432.1 116.3V142.9H450.6V157.8H432.1V205.4H416.1V157.9Z" fill="#79328A"/>
<path d="M459.2 126C459.2 120.1 464 115.5 469.6 115.5C475.4 115.5 480.1 120.1 480.1 126C480.1 131.9 475.3 136.5 469.6 136.5C464 136.5 459.2 131.9 459.2 126ZM461.7 143H477.7V205.5H461.7V143Z" fill="#79328A"/>
<path d="M490.9 174.2C490.9 155.4 504.5 142.2 522.4 142.2C530.4 142.2 536.9 145.6 539.9 148.8V142.9H556V205.4H539.9V199.4C537 202.8 530.5 206.2 522.4 206.2C504.5 206.2 490.9 193 490.9 174.2ZM539.7 174.2C539.7 163.7 532.7 157.2 523.5 157.2C514.1 157.2 506.7 163.7 506.7 174.2C506.7 184.6 514.1 191.2 523.5 191.2C532.7 191.2 539.7 184.6 539.7 174.2Z" fill="#79328A"/>
<path d="M0 295.9H16.6C16.6 302.9 21.1 308.7 28.7 308.7C36.3 308.7 40.8 303.5 40.8 295.9C40.8 285 31.4 284.3 21.4 280.5C12.2 277.1 4.5 270.6 4.5 259C4.5 245 14.7 235.2 28.6 235.2C39.5 235.2 46.7 240.3 51 248.1L38.2 257.1C36.4 253.1 33.2 250.6 28.8 250.6C23.9 250.6 20.7 253.8 20.7 258.2C20.7 265.4 28.1 266.4 38.3 270.2C49.2 274.2 57.3 281.1 57.3 295.2C57.3 312 44.7 324.2 28.5 324.2C12.5 324.2 0.1 311.6 0 295.9Z" fill="#79328A"/>
<path d="M69.9 298.5V261H85.9V294.6C85.9 304.5 90 309 98 309C106.4 309 110.8 303.1 110.8 294.6V261H126.8V323.5H110.8V317.6C107.8 321 102.3 324.2 94.4 324.2C79.5 324.2 69.9 315.1 69.9 298.5Z" fill="#79328A"/>
<path d="M142.5 261H158.5V266.9C162.3 263.4 168.4 260.3 176.3 260.3C194.5 260.3 207.7 273.2 207.7 292.3C207.7 311.4 194.6 324.3 176.3 324.3C168.5 324.3 162.2 321.3 158.5 317.5V354.7L142.5 356.5V261ZM191.7 292.2C191.7 282.1 184.7 275.2 175.1 275.2C165.5 275.2 158.9 282.1 158.9 292.2C158.9 302.2 165.5 309.2 175.1 309.2C184.7 309.2 191.7 302.2 191.7 292.2Z" fill="#79328A"/>
<path d="M220.7 261H236.7V266.9C240.5 263.4 246.6 260.3 254.5 260.3C272.7 260.3 285.9 273.2 285.9 292.3C285.9 311.4 272.8 324.3 254.5 324.3C246.7 324.3 240.4 321.3 236.7 317.5V354.7L220.7 356.5V261ZM270 292.2C270 282.1 263 275.2 253.4 275.2C243.8 275.2 237.2 282.1 237.2 292.2C237.2 302.2 243.8 309.2 253.4 309.2C263 309.2 270 302.2 270 292.2Z" fill="#79328A"/>
<path d="M296.4 292.2C296.4 274 309.9 260.2 328.5 260.2C347.1 260.2 360.6 274 360.6 292.2C360.6 310.4 347.1 324.2 328.5 324.2C309.9 324.2 296.4 310.5 296.4 292.2ZM344.5 292.2C344.5 282.4 338.1 275.4 328.5 275.4C319 275.4 312.5 282.4 312.5 292.2C312.5 302 319 308.8 328.5 308.8C338.1 308.9 344.5 302 344.5 292.2Z" fill="#79328A"/>
<path d="M373.7 261H389.7V269.2C391.8 264.2 396.8 260.2 404.3 260.2C407.3 260.2 408.8 260.6 409.8 261V276.9C408.4 276.3 406.3 275.9 404 275.9C395.8 275.9 389.6 281.4 389.6 291.4V323.5H373.6L373.7 261Z" fill="#79328A"/>
<path d="M429.7 275.9H417.1V261H429.7V236.1L445.7 234.3V260.9H464.2V275.8H445.7V323.4H429.7V275.9Z" fill="#79328A"/>
</g>
<defs>

</defs>
</svg>
